<?xml version="1.0" encoding="UTF-8" standalone="no"?>
<!-- Created with Inkscape (http://www.inkscape.org/) -->

<svg
   xmlns:dc="http://purl.org/dc/elements/1.1/"
   xmlns:cc="http://creativecommons.org/ns#"
   xmlns:rdf="http://www.w3.org/1999/02/22-rdf-syntax-ns#"
   xmlns:svg="http://www.w3.org/2000/svg"
   xmlns="http://www.w3.org/2000/svg"
   xmlns:sodipodi="http://sodipodi.sourceforge.net/DTD/sodipodi-0.dtd"
   xmlns:inkscape="http://www.inkscape.org/namespaces/inkscape"
   width="275.79294mm"
   height="60.601063mm"
   viewBox="0 0 275.79293 60.601062"
   version="1.1"
   id="svg8"
   inkscape:version="0.92.3 (2405546, 2018-03-11)"
   sodipodi:docname="logo.svg">
  <defs
     id="defs2" />
  <sodipodi:namedview
     id="base"
     pagecolor="#ffffff"
     bordercolor="#666666"
     borderopacity="1.0"
     inkscape:pageopacity="0.0"
     inkscape:pageshadow="2"
     inkscape:zoom="0.49497475"
     inkscape:cx="397.19969"
     inkscape:cy="92.255573"
     inkscape:document-units="mm"
     inkscape:current-layer="layer1"
     showgrid="false"
     fit-margin-top="0"
     fit-margin-left="0"
     fit-margin-right="0"
     fit-margin-bottom="0"
     inkscape:window-width="1920"
     inkscape:window-height="1051"
     inkscape:window-x="0"
     inkscape:window-y="0"
     inkscape:window-maximized="1" />
  <metadata
     id="metadata5">
    <rdf:RDF>
      <cc:Work
         rdf:about="">
        <dc:format>image/svg+xml</dc:format>
        <dc:type
           rdf:resource="http://purl.org/dc/dcmitype/StillImage" />
        <dc:title></dc:title>
      </cc:Work>
    </rdf:RDF>
  </metadata>
  <g
     inkscape:label="Layer 1"
     inkscape:groupmode="layer"
     id="layer1"
     transform="translate(-6.2820562,-165.83335)">
    <path
       style="fill:#ffffff;stroke-width:0.35277778"
       d="m 59.892279,220.96595 v -5.46805 h 1.058333 c 0.582084,0 1.058334,0.14658 1.058334,0.32574 0,0.17915 0.493158,0.0797 1.095907,-0.22098 0.892391,-0.44518 1.343752,-0.47245 2.430505,-0.14685 1.767149,0.52945 2.571602,1.80969 2.571602,4.09256 0,2.16678 -0.48048,3.17123 -1.857618,3.88338 -1.296314,0.67034 -1.894766,0.66933 -3.199582,-0.005 l -1.040814,-0.53824 v 1.77295 c 0,1.73476 -0.0228,1.77295 -1.058334,1.77295 h -1.058333 z m 5.291667,0.52917 c 1.355058,-1.35506 0.502913,-4.58611 -1.209524,-4.58611 -1.800031,0 -2.5293,3.26634 -1.057804,4.73783 0.742696,0.7427 1.418107,0.6975 2.267328,-0.15172 z m 57.502774,4.05694 c 0,-0.70847 0.17565,-0.88194 0.89302,-0.88194 0.49116,0 0.98541,-0.24079 1.09835,-0.53509 0.11293,-0.29429 -0.44768,-2.28429 -1.2458,-4.4222 -0.79812,-2.13792 -1.45112,-3.96088 -1.45112,-4.05103 0,-0.0901 0.54727,-0.1639 1.21616,-0.1639 1.21006,0 1.22036,0.0137 2.04965,2.73402 l 0.83347,2.73403 0.88794,-2.64583 c 0.83652,-2.49259 0.95278,-2.65224 2.00731,-2.75638 0.61565,-0.0608 1.11936,0.0411 1.11936,0.22645 0,0.88013 -3.62224,9.81545 -4.13608,10.20285 -0.32169,0.24253 -1.18955,0.44097 -1.92857,0.44097 -1.19808,0 -1.34369,-0.0956 -1.34369,-0.88195 z m -79.267586,-2.2775 c -0.754514,-0.46006 -1.265425,-1.14834 -1.544952,-2.08132 -1.117682,-3.73049 1.634092,-7.05768 4.60949,-5.57335 l 1.061385,0.52948 v -1.91323 -1.91324 h 1.234722 1.234722 v 5.64444 5.64445 h -1.058333 c -0.582083,0 -1.058333,-0.16283 -1.058333,-0.36184 0,-0.20741 -0.444215,-0.13213 -1.040815,0.17639 -1.370326,0.70862 -2.07803,0.67738 -3.437886,-0.15178 z m 3.480784,-1.65773 c 1.314559,-1.18966 0.524319,-4.70782 -1.057455,-4.70782 -1.805199,0 -2.605747,3.64659 -1.041132,4.7425 0.990593,0.69383 1.299224,0.68873 2.098587,-0.0347 z m 6.742596,2.10034 c -1.067315,-0.20658 -2.493116,-1.98435 -2.768413,-3.45182 -0.328129,-1.74908 0.723572,-3.71111 2.438054,-4.54839 1.156663,-0.56486 1.558135,-0.60272 2.715101,-0.25609 1.688755,0.50596 2.80669,1.87456 2.80669,3.43599 v 1.18715 h -2.822223 c -3.001613,0 -3.490492,0.3442 -2.177083,1.53282 0.796375,0.72071 1.483293,0.73978 2.37424,0.0659 0.376633,-0.28487 1.117946,-0.523 1.647363,-0.52917 0.894662,-0.0104 0.93477,0.0498 0.56848,0.85373 -0.656664,1.44122 -2.593107,2.1336 -4.782209,1.70988 z m 2.636393,-5.83802 c -0.656096,-0.99304 -1.766087,-1.18473 -2.516265,-0.43455 -0.947262,0.94726 -0.664972,1.2283 1.233776,1.2283 1.794045,0 1.803182,-0.006 1.282489,-0.79375 z m 15.370358,5.85522 c -1.219972,-0.26185 -2.50958,-1.80854 -2.76412,-3.31514 -0.51949,-3.07483 2.286223,-5.81151 5.095269,-4.9699 1.724512,0.51668 2.508133,1.42905 2.745158,3.19618 l 0.192941,1.4385 H 74.04984 c -3.049467,0 -3.542058,0.33957 -2.223533,1.53282 0.806055,0.72947 1.447595,0.73774 2.455668,0.0316 0.433592,-0.30369 1.21799,-0.50213 1.743103,-0.44097 l 0.954755,0.11122 -1.047249,1.15878 c -1.057603,1.17023 -2.59085,1.62013 -4.283319,1.25686 z m 2.621308,-5.85522 c -0.656096,-0.99304 -1.766086,-1.18473 -2.516265,-0.43455 -0.947261,0.94726 -0.664972,1.2283 1.233777,1.2283 1.794044,0 1.803181,-0.006 1.282488,-0.79375 z m 14.364544,5.59296 c -0.586786,-0.25566 -1.261474,-0.89192 -1.499306,-1.4139 -0.593086,-1.30169 -0.543038,-3.91199 0.0988,-5.15317 0.656138,-1.26884 2.833589,-2.06077 3.979675,-1.4474 1.26043,0.67456 1.486327,0.46621 1.486327,-1.37085 0,-1.7247 0.02353,-1.76389 1.058334,-1.76389 h 1.058333 v 5.64444 5.64445 h -1.058333 c -0.582084,0 -1.058334,-0.14934 -1.058334,-0.33186 0,-0.18252 -0.436562,-0.10412 -0.970139,0.17421 -1.181452,0.61631 -1.714962,0.6194 -3.095356,0.018 z m 3.204319,-1.77216 c 0.967825,-0.70769 0.967825,-3.58252 0,-4.29021 -0.938202,-0.68603 -1.479462,-0.62954 -2.354781,0.24578 -0.601673,0.60167 -0.708882,1.02706 -0.552567,2.19248 0.279111,2.08092 1.51638,2.86905 2.907348,1.85195 z m 6.286299,1.7577 c -1.519862,-0.66148 -2.250123,-1.84478 -2.250123,-3.64605 0,-2.0368 0.838818,-3.55243 2.305156,-4.16511 1.517128,-0.63389 2.080942,-0.62939 3.465632,0.0277 1.31956,0.62617 1.85635,1.39663 2.18184,3.13167 l 0.23978,1.27815 h -3.03787 c -3.190913,0 -3.535154,0.20827 -2.332315,1.41111 0.839911,0.83991 1.392195,0.8847 2.313825,0.18761 0.65783,-0.49755 2.62506,-0.75296 2.62506,-0.3408 0,0.68323 -0.93297,1.69533 -1.95734,2.12334 -1.46411,0.61174 -2.133859,0.61031 -3.553645,-0.008 z m 3.394325,-5.11233 c 0,-0.43558 -1.0169,-1.43631 -1.4595,-1.43631 -0.620333,0 -1.626367,0.66998 -1.839318,1.22492 -0.168409,0.43887 0.11871,0.53897 1.545996,0.53897 0.964052,0 1.752822,-0.14741 1.752822,-0.32758 z m -72.319448,1.20952 v -4.05694 h 1.234723 1.234722 v 4.05694 4.05695 h -1.234722 -1.234723 z m 3.880556,0 v -4.05694 h 1.058333 c 0.582084,0 1.058334,0.14658 1.058334,0.32574 0,0.17915 0.483695,0.0844 1.074877,-0.21048 1.192084,-0.5947 2.605174,-0.39994 3.599428,0.49607 0.508483,0.45823 0.617361,1.16887 0.617361,4.02945 v 3.47311 h -1.058333 -1.058333 v -2.79703 c 0,-2.07238 -0.143624,-2.94064 -0.554366,-3.35139 -0.72618,-0.72618 -1.064411,-0.69947 -1.915079,0.15119 -0.580123,0.58013 -0.705555,1.17593 -0.705555,3.35139 v 2.64584 h -1.058334 -1.058333 z m 44.802778,0 v -4.05694 h 1.058333 c 0.582083,0 1.058333,0.16282 1.058333,0.36183 0,0.20293 0.483623,0.11175 1.101189,-0.20761 0.739627,-0.38247 1.50132,-0.49438 2.319835,-0.34083 1.638656,0.30742 2.223421,1.74524 2.223421,5.46694 v 2.83356 h -1.234722 -1.234723 v -2.9862 c 0,-2.62515 -0.08531,-3.03186 -0.705555,-3.3638 -1.62668,-0.87058 -2.469445,0.64941 -2.469445,4.45382 0,1.87168 -0.01369,1.89618 -1.058333,1.89618 h -1.058333 z m 27.163894,0 v -4.05694 h 1.05833 c 0.58208,0 1.05833,0.14658 1.05833,0.32574 0,0.17915 0.47762,0.0875 1.06139,-0.20375 1.31817,-0.65759 2.97289,-0.34907 3.70067,0.68999 0.37857,0.54048 0.52961,1.68953 0.52961,4.02901 v 3.2729 h -1.05834 -1.05833 v -2.60676 c 0,-2.02114 -0.14827,-2.78985 -0.66,-3.42181 -0.63921,-0.7894 -0.68919,-0.79593 -1.5875,-0.20734 -0.87318,0.57213 -0.9275,0.77255 -0.9275,3.42181 v 2.8141 h -1.05833 -1.05833 z m 9.94833,3.63361 c -0.25776,-0.25775 -0.42334,-1.51252 -0.42334,-3.20802 0,-2.48801 -0.0752,-2.80436 -0.70555,-2.9692 -0.38806,-0.10148 -0.70556,-0.46498 -0.70556,-0.80778 0,-0.3428 0.3175,-0.70629 0.70556,-0.80777 0.51375,-0.13435 0.70555,-0.48119 0.70555,-1.27587 0,-0.97744 0.11048,-1.09136 1.05834,-1.09136 0.97433,0 1.05833,0.098 1.05833,1.23472 0,1.08186 0.10919,1.23473 0.88194,1.23473 0.64676,0 0.88195,0.18814 0.88195,0.70555 0,0.52079 -0.23519,0.70556 -0.89806,0.70556 -0.88384,0 -0.89642,0.0377 -0.79375,2.38125 0.0948,2.16365 0.17684,2.39155 0.89806,2.49398 0.5745,0.0816 0.79375,0.34956 0.79375,0.97014 0,0.77509 -0.14563,0.85741 -1.51695,0.85741 -0.83431,0 -1.70744,-0.1905 -1.94027,-0.42334 z m 4.16277,-5.22111 v -5.64444 h 1.05834 1.05833 v 5.64444 5.64445 h -1.05833 -1.05834 z m -101.599994,3.35139 v -0.88194 h 3.880555 3.880556 v 0.88194 0.88194 h -3.880556 -3.880555 z m 0,-3.35139 c 0,-0.66279 0.235185,-0.70555 3.880555,-0.70555 3.64537,0 3.880556,0.0428 3.880556,0.70555 0,0.6628 -0.235186,0.70556 -3.880556,0.70556 -3.64537,0 -3.880555,-0.0428 -3.880555,-0.70556 z m 11.641666,-4.7625 c 0,-0.77275 0.152871,-0.88194 1.234723,-0.88194 1.081852,0 1.234722,0.10919 1.234722,0.88194 0,0.77275 -0.15287,0.88195 -1.234722,0.88195 -1.081852,0 -1.234723,-0.1092 -1.234723,-0.88195 z M 148.92728,203.19079 c -3.26898,-0.84609 -5.71254,-2.7874 -7.21464,-5.73177 -1.47986,-2.90075 -1.72718,-5.42296 -1.73368,-17.67987 l -0.006,-11.55348 h 2.27223 2.27222 l 0.11362,12.25903 c 0.10879,11.73708 0.14727,12.34263 0.9038,14.22247 1.32381,3.28945 3.73422,4.97752 7.15347,5.00972 2.64156,0.0249 5.0888,-1.1555 6.41175,-3.0926 1.81855,-2.66277 2.03958,-4.50589 2.03958,-17.00746 v -11.39116 h 2.29306 2.29305 l -0.006,11.37709 c -0.007,12.48965 -0.25847,14.76214 -1.98725,17.93848 -2.03729,3.74316 -5.47732,5.65132 -10.49949,5.82397 -1.76316,0.0606 -3.70062,-0.0179 -4.30547,-0.17442 z m 35.51546,-0.0478 c -2.59367,-0.54863 -6.42229,-2.59766 -8.17657,-4.37601 -3.22518,-3.26941 -4.54867,-6.97949 -4.53471,-12.71192 0.0103,-4.21149 0.37042,-5.96632 1.83539,-8.94251 2.243,-4.55681 7.0161,-8.00115 12.32989,-8.89744 4.61943,-0.77916 12.66231,0.28089 12.15532,1.60208 -0.0953,0.24846 -0.36424,1.08888 -0.59755,1.8676 l -0.4242,1.41586 -1.45305,-0.53291 c -0.79917,-0.2931 -2.90415,-0.61694 -4.67773,-0.71964 -2.68285,-0.15535 -3.65644,-0.0556 -5.79414,0.59372 -2.23106,0.67766 -2.85578,1.06701 -4.74368,2.95647 -2.55602,2.55812 -3.59728,4.91154 -3.93364,8.89058 -0.54796,6.48239 1.94943,11.58101 6.85563,13.99632 2.28205,1.12346 2.49738,1.16067 6.59977,1.14045 3.04183,-0.015 4.66147,-0.18398 5.72889,-0.59777 l 1.48813,-0.57687 0.36198,1.30332 c 0.62532,2.25147 0.5233,2.46264 -1.48616,3.07642 -2.20136,0.67238 -9.28846,0.98715 -11.53357,0.51225 z m 20.35301,0.12605 -1.32292,-0.16093 v -17.24883 -17.24883 l 1.32292,-0.2746 c 2.1161,-0.43926 11.38382,-0.32923 12.98546,0.15416 5.46401,1.64909 7.97183,6.88521 5.5884,11.66812 -0.84302,1.69171 -2.75953,3.45491 -4.37455,4.02459 -0.37518,0.13234 -0.23909,0.30197 0.46766,0.58291 2.04089,0.81126 3.98264,2.46658 4.92551,4.19894 0.79928,1.46854 0.95683,2.19368 0.95683,4.40401 0,2.20711 -0.16307,2.95989 -0.9831,4.53837 -1.12885,2.17291 -3.31651,3.84822 -6.1956,4.74458 -1.82031,0.56673 -10.49478,0.96735 -13.37061,0.61751 z m 12.25852,-4.35849 c 0.98914,-0.49088 2.10834,-1.39583 2.54905,-2.06107 2.20511,-3.32858 1.07436,-7.41596 -2.54905,-9.21418 -1.44565,-0.71744 -2.41492,-0.89945 -5.37935,-1.01015 l -3.61598,-0.13502 v 6.7828 6.7828 l 3.61598,-0.13503 c 2.96443,-0.11069 3.9337,-0.2927 5.37935,-1.01015 z m -2.05631,-16.27283 c 2.1133,-0.53213 4.20095,-2.49971 4.53359,-4.27285 0.86096,-4.58929 -2.18707,-7.10609 -8.34536,-6.89089 l -2.95086,0.10311 -0.0969,5.73264 -0.0969,5.73264 h 2.67474 c 1.47111,0 3.39789,-0.18209 4.28175,-0.40465 z"
       id="path826"
       inkscape:connector-curvature="0"
       sodipodi:nodetypes="ccssccscccsscccsccssccssscccscsscsccccccccsscccscccccccscssccccccsccscccssccccccccscccccsscccsscccssccscsccccsccscccsscsscccccccccccssccscccsccsccccccssccscccscssccccssccscccsccscccccssscssssssccsscccccccccccccccccccssssssssssccccccsccssccccccccsccscccccscccccccccssccccscccssccscccccccccccccccscc" />
    <path
       style="fill:#ff0000;stroke-width:0.35277778"
       d="m 16.865396,189.29307 v -13.93472 h -5.29167 -5.2916698 v -4.7625 -4.7625 H 22.509836 38.737615 v 4.7625 4.7625 h -5.29167 -5.291669 v 13.93472 13.93472 h -5.64444 -5.64444 z m 23.636109,-4.7625 v -18.69722 h 15.69861 15.69861 v 4.7625 4.7625 h -10.07029 -10.07028 l 0.10431,2.38125 0.10432,2.38125 9.96597,0.0937 9.96597,0.0937 v 4.22784 4.22784 h -10.05417 -10.05416 v 2.46944 2.46944 h 10.05416 10.05417 v 4.7625 4.7625 h -15.69861 -15.69861 z m 33.513885,0.0444 v -18.7416 l 10.31875,0.006 c 7.498766,0.004 10.958052,0.14164 12.658044,0.50197 6.177546,1.30939 10.080086,5.21478 11.830486,11.83913 0.75029,2.83941 0.83677,9.26162 0.16153,11.99445 -1.58209,6.40303 -5.74651,10.59667 -12.119686,12.20473 -1.655345,0.41766 -4.807051,0.60566 -12.530374,0.74741 l -10.31875,0.18938 v -18.74159 z m 18.964799,8.5913 c 6.248555,-1.85562 7.165061,-13.02731 1.359064,-16.56608 -1.561634,-0.95182 -2.070412,-1.06403 -5.37986,-1.18654 l -3.655113,-0.1353 v 9.21223 9.21223 h 2.934581 c 1.614019,0 3.747617,-0.24144 4.741328,-0.53654 z m 18.289791,-4.84332 c 0.14002,-0.24253 1.9152,-2.87965 3.94485,-5.86026 l 3.69028,-5.4193 -3.48306,-5.11688 c -1.91568,-2.81429 -3.61001,-5.33655 -3.76517,-5.60502 -0.23331,-0.40368 0.41855,-0.48812 3.7683,-0.48812 h 4.05041 l 1.50536,2.64583 c 0.82796,1.45521 1.59284,2.64389 1.69976,2.64151 0.10692,-0.002 0.88297,-1.193 1.72456,-2.64583 l 1.53015,-2.64151 h 4.04691 c 3.13895,0 3.98945,0.0989 3.79079,0.44097 -0.14087,0.24254 -1.83085,2.75966 -3.75552,5.5936 l -3.4994,5.15263 3.67839,5.4307 c 2.02311,2.98689 3.79247,5.62915 3.93191,5.87168 0.19657,0.34192 -0.65813,0.44098 -3.80489,0.44098 h -4.05842 l -1.69129,-2.82223 c -0.93021,-1.55222 -1.77405,-2.82222 -1.87518,-2.82222 -0.10114,0 -0.94497,1.27 -1.87518,2.82222 l -1.6913,2.82223 h -4.05841 c -3.14732,0 -4.00127,-0.099 -3.80385,-0.44098 z"
       id="path826-6"
       inkscape:connector-curvature="0"
       sodipodi:nodetypes="cccccccccccccccccccccccccccccccccccccccccccccscscscccssccccsscscccsccccczcccccsccsscsc" />
    <path
       style="fill:#ffffff;stroke-width:0.35277778"
       d="m 150.98098,225.81681 c -0.40843,-0.33523 -0.84001,-0.88732 -0.95907,-1.22687 -0.17814,-0.50809 -0.007,-0.61736 0.964,-0.61736 0.64925,0 1.37808,0.23812 1.61962,0.52916 0.52754,0.63565 1.81239,0.69233 2.39889,0.10584 0.23283,-0.23284 0.42333,-0.79405 0.42333,-1.24714 0,-0.70515 -0.0983,-0.7712 -0.68236,-0.45861 -1.28855,0.68961 -2.83775,0.42713 -3.93088,-0.66601 -0.89656,-0.89655 -1.0312,-1.29161 -1.0312,-3.02574 0,-1.74956 0.13111,-2.12566 1.06739,-3.06194 0.95056,-0.95056 1.23049,-1.04447 2.55764,-0.85797 0.81963,0.11518 2.08556,0.20441 2.81316,0.19829 l 1.32292,-0.0111 v 4.61643 c 0,4.43104 -0.0348,4.65122 -0.86591,5.48235 -0.7227,0.7227 -1.20403,0.86461 -2.91042,0.85806 -1.4062,-0.005 -2.27635,-0.19813 -2.78711,-0.61736 z m 3.89241,-4.86804 c 0.65342,-0.65342 0.73866,-3.00079 0.13103,-3.60842 -1.09268,-1.09267 -3.10444,0.11896 -3.10444,1.86973 0,1.02164 0.97512,2.29305 1.75869,2.29305 0.36319,0 0.90982,-0.24946 1.21472,-0.55436 z m -18.10403,2.17872 c -1.2057,-0.66826 -1.77586,-1.89906 -1.79022,-3.8645 -0.0108,-1.48372 0.14681,-1.87028 1.18695,-2.91041 0.99714,-0.99715 1.45826,-1.19923 2.73402,-1.19813 0.89868,7.9e-4 2.00226,0.28648 2.66318,0.68947 2.21121,1.34825 2.34095,5.38813 0.22645,7.0514 -1.07604,0.84641 -3.69374,0.96747 -5.02038,0.23217 z m 3.82931,-1.95394 c 0.5456,-1.01946 0.4407,-3.07229 -0.18917,-3.70216 -1.91724,-1.91724 -4.39326,1.29297 -2.77702,3.60047 0.70494,1.00644 2.44997,1.06626 2.96619,0.10169 z m 3.54019,-1.6107 v -4.05694 h 1.05834 c 0.70555,0 1.05833,0.17639 1.05833,0.52917 0,0.41157 0.15679,0.37237 0.70556,-0.17639 0.38805,-0.38806 1.10243,-0.70556 1.5875,-0.70556 0.74475,0 0.88194,0.16463 0.88194,1.05834 0,0.87034 -0.14468,1.05833 -0.81452,1.05833 -1.66758,0 -2.15627,0.7789 -2.30223,3.66943 l -0.13537,2.68057 h -1.01977 -1.01978 z m 15.04774,3.41181 c -0.60406,-0.66747 -0.77323,-2.39142 -0.30668,-3.12515 0.35837,-0.5636 2.01661,-1.1686 3.20302,-1.1686 1.80791,0 2.4989,-1.57791 0.87001,-1.98674 -0.71988,-0.18068 -1.08606,-0.0577 -1.55585,0.52245 -0.79594,0.98294 -2.44157,1.03604 -2.44157,0.0788 0,-1.19182 1.64717,-2.14227 3.71266,-2.14227 2.90317,0 3.24742,0.48629 3.43385,4.8507 l 0.15446,3.61597 h -0.97525 c -0.53639,0 -1.03576,-0.18152 -1.10971,-0.40337 -0.10088,-0.30263 -0.32267,-0.30263 -0.88815,0 -1.18196,0.63257 -3.42535,0.50017 -4.09679,-0.24177 z m 4.15345,-1.32034 c 0.3049,-0.3049 0.55437,-0.88037 0.55437,-1.27882 0,-0.62857 -0.15112,-0.69423 -1.1418,-0.49609 -1.5869,0.31738 -2.29396,1.06085 -1.69512,1.78241 0.5826,0.70198 1.57634,0.69872 2.28255,-0.007 z m 4.08215,-2.09147 v -4.05694 h 1.05833 c 0.58208,0 1.05833,0.16775 1.05833,0.37278 0,0.20895 0.34459,0.13143 0.78406,-0.17639 1.17066,-0.81997 3.27503,-0.70669 4.14109,0.22291 0.62254,0.66822 0.7193,1.23766 0.7193,4.23333 v 3.46126 h -1.05833 -1.05834 v -2.44648 c 0,-3.14327 -0.4096,-4.2563 -1.56636,-4.2563 -1.23422,0 -1.60864,0.93887 -1.60864,4.03375 v 2.66903 h -1.23472 -1.23472 z m 8.81944,0 v -4.05694 h 1.23472 1.23473 v 4.05694 4.05695 h -1.23473 -1.23472 z m 3.175,3.14102 c 0,-0.60714 0.65411,-1.66096 1.94028,-3.12592 1.06715,-1.21551 1.94028,-2.31147 1.94028,-2.43547 0,-0.124 -0.79375,-0.22546 -1.76389,-0.22546 -1.5287,0 -1.76389,-0.0941 -1.76389,-0.70555 0,-0.65852 0.23519,-0.70556 3.52778,-0.70556 3.34225,0 3.52778,0.0387 3.52778,0.73667 0,0.40516 -0.95555,1.79422 -2.12344,3.0868 l -2.12344,2.35014 2.12344,0.10503 c 1.99024,0.0984 2.12344,0.15929 2.12344,0.97014 0,0.86337 -0.007,0.86511 -3.70417,0.86511 h -3.70417 z m 9.91661,0.42362 c -1.2057,-0.66826 -1.77586,-1.89906 -1.79022,-3.8645 -0.0108,-1.48372 0.14681,-1.87028 1.18695,-2.91041 0.99873,-0.99874 1.45785,-1.19945 2.74372,-1.19945 1.85248,0 3.01302,0.73436 3.67882,2.32783 1.01897,2.43875 0.85355,2.61106 -2.50671,2.61106 -1.64924,0 -2.99861,0.0898 -2.99861,0.19958 0,0.10977 0.16433,0.50665 0.36519,0.88195 0.44753,0.83623 2.51269,0.93626 3.16259,0.15319 0.56017,-0.67496 2.11667,-0.69802 2.11667,-0.0314 0,0.27379 -0.48843,0.90879 -1.08541,1.41111 -1.22736,1.03276 -3.42646,1.22275 -4.87299,0.421 z m 3.84173,-4.90519 c 0,-1.25378 -1.97458,-1.74975 -2.97666,-0.74767 -0.81676,0.81676 -0.36147,1.20628 1.40998,1.20628 1.05029,0 1.56668,-0.15116 1.56668,-0.45861 z m 4.2062,4.3663 c -0.91632,-0.91631 -1.0312,-1.27304 -1.0312,-3.20213 0,-1.94588 0.11066,-2.2816 1.06738,-3.23833 0.89609,-0.89608 1.27826,-1.04244 2.38125,-0.9119 0.72263,0.0855 1.59168,0.27753 1.93123,0.42671 0.54278,0.23846 0.61736,0.0536 0.61736,-1.53041 0,-1.76663 0.0206,-1.80163 1.05834,-1.80163 h 1.05833 v 5.64444 5.64445 h -1.05833 c -0.58209,0 -1.05834,-0.16434 -1.05834,-0.36519 0,-0.25173 -0.21199,-0.25173 -0.68236,0 -1.34749,0.72116 -3.18167,0.43598 -4.28366,-0.66601 z m 4.41685,-1.51674 c 1.12422,-1.60505 0.27051,-4.15484 -1.3911,-4.15484 -0.99765,0 -1.94028,1.19972 -1.94028,2.46945 0,1.26972 0.94263,2.46944 1.94028,2.46944 0.47011,0 1.08446,-0.34625 1.3911,-0.78405 z m 10.77973,-2.03817 v -4.58611 h -1.76389 c -1.72469,0 -1.76389,-0.0235 -1.76389,-1.05834 v -1.05833 h 4.7625 4.7625 v 1.05833 c 0,1.03482 -0.0392,1.05834 -1.76389,1.05834 h -1.76389 v 4.58611 4.58611 h -1.23472 -1.23472 z m 6.70278,-1.05834 v -5.64444 h 4.23333 4.23333 v 1.05833 1.05834 h -2.99861 -2.99861 v 1.05833 1.05833 h 2.82222 2.82223 v 1.05834 1.05833 h -2.84353 -2.84351 l 0.10949,1.32292 0.10949,1.32291 2.91042,0.10246 2.91041,0.10246 v 1.04407 1.04407 h -4.23333 -4.23333 z m 9.525,0.01 v -5.71864 l 3.69818,0.12031 c 3.63526,0.11826 3.71768,0.13982 4.84383,1.26676 1.05155,1.05228 1.15657,1.36258 1.27853,3.77772 0.11108,2.19981 0.0124,2.82621 -0.60184,3.82006 -1.02219,1.65394 -2.18964,2.10287 -5.95551,2.29015 l -3.26319,0.16228 z m 6.77705,2.45536 c 0.41591,-0.51366 0.63128,-1.37352 0.63128,-2.52046 0,-2.37113 -1.05799,-3.47266 -3.33536,-3.47266 h -1.60353 v 3.29259 c 0,1.81093 0.11906,3.41361 0.26458,3.56152 0.53805,0.54688 3.3958,-0.0617 4.04303,-0.86101 z m 9.4216,2.19753 c -2.08813,-1.86575 -1.68892,-5.70262 0.72313,-6.94994 2.65221,-1.37152 5.51626,0.0383 5.90061,2.90444 l 0.20106,1.49931 h -2.86867 c -2.1186,-2e-5 -2.86867,0.11989 -2.86867,0.45859 0,1.23934 2.31991,1.80643 3.175,0.77611 0.24154,-0.29104 0.90006,-0.52916 1.46336,-0.52916 1.02216,0 1.02312,0.002 0.48232,1.04787 -0.70093,1.35545 -1.52827,1.77435 -3.50443,1.77435 -1.25718,0 -1.84326,-0.21278 -2.70371,-0.98158 z m 4.26246,-4.41593 c 0,-0.68703 -0.75193,-1.30528 -1.5875,-1.30528 -0.83558,0 -1.5875,0.61825 -1.5875,1.30528 0,0.30835 0.52012,0.45861 1.5875,0.45861 1.06737,0 1.5875,-0.15026 1.5875,-0.45861 z m 5.10973,5.03575 c -0.20146,-0.32597 -2.64029,-7.3877 -2.64029,-7.64506 0,-0.0589 0.54016,-0.10708 1.20036,-0.10708 1.18179,0 1.21266,0.0396 1.99562,2.55764 l 0.79527,2.55764 0.78697,-2.46945 c 0.73441,-2.30449 0.86032,-2.47682 1.88493,-2.57999 0.60388,-0.0608 1.09796,0.0183 1.09796,0.17573 0,0.15745 -0.56875,1.99313 -1.26389,4.07929 l -1.26389,3.79303 h -1.18473 c -0.65161,0 -1.28534,-0.16279 -1.40831,-0.36175 z m 6.76439,-0.36273 c -2.14844,-1.68996 -2.01953,-5.68194 0.22773,-7.05219 1.80243,-1.09901 3.6181,-0.9156 5.04315,0.50945 0.91983,0.91983 1.19944,1.4955 1.19944,2.46944 v 1.27 h -2.82222 c -2.08049,0 -2.82222,0.12053 -2.82222,0.45861 0,1.23934 2.31991,1.80643 3.175,0.77611 0.50167,-0.60448 2.46944,-0.72341 2.46944,-0.14925 0,0.20895 -0.46404,0.84395 -1.0312,1.41111 -0.86153,0.86154 -1.31804,1.0312 -2.77464,1.0312 -1.22446,0 -2.01763,-0.21566 -2.66448,-0.72448 z m 4.00088,-4.91325 c 0,-1.42402 -2.83028,-1.31556 -3.11268,0.11929 -0.0924,0.46969 0.19177,0.57955 1.49931,0.57955 1.37301,0 1.61337,-0.10411 1.61337,-0.69884 z m 3.52777,1.58078 v -4.05694 h 1.05834 c 0.58208,0 1.05833,0.16775 1.05833,0.37278 0,0.20895 0.34458,0.13143 0.78405,-0.17639 1.063,-0.74455 2.84218,-0.69181 3.83699,0.11373 0.73781,0.59744 0.83281,1.01549 0.96206,4.23334 l 0.1434,3.57043 h -1.27575 -1.27575 v -2.95542 c 0,-3.10781 -0.36893,-3.93186 -1.64989,-3.68517 -0.98405,0.18951 -1.51427,1.67537 -1.51991,4.25934 l -0.005,2.38125 h -1.05833 -1.05834 z m 10.30906,3.50778 c -0.69833,-0.48912 -0.78406,-0.85557 -0.78406,-3.35139 0,-2.56703 -0.0592,-2.80222 -0.70555,-2.80222 -0.47037,0 -0.70556,-0.23519 -0.70556,-0.70555 0,-0.47037 0.23519,-0.70556 0.70556,-0.70556 0.57116,0 0.70555,-0.23519 0.70555,-1.23472 0,-1.17593 0.0588,-1.23472 1.23473,-1.23472 1.17592,0 1.23472,0.0588 1.23472,1.23472 0,0.99953 0.13439,1.23472 0.70555,1.23472 0.47037,0 0.70556,0.23519 0.70556,0.70556 0,0.47036 -0.23519,0.70555 -0.70556,0.70555 -0.63421,0 -0.70555,0.23519 -0.70555,2.32608 0,2.0294 0.09,2.34962 0.70555,2.51059 0.45659,0.1194 0.70556,0.4812 0.70556,1.02531 0,0.71485 -0.17319,0.8408 -1.15623,0.8408 -0.63592,0 -1.50905,-0.24713 -1.94027,-0.54917 z m -102.73684,-9.85779 c 0,-0.77275 0.15287,-0.88194 1.23472,-0.88194 1.08186,0 1.23473,0.10919 1.23473,0.88194 0,0.77276 -0.15287,0.88195 -1.23473,0.88195 -1.08185,0 -1.23472,-0.10919 -1.23472,-0.88195 z"
       id="path826-7"
       inkscape:connector-curvature="0"
       sodipodi:nodetypes="cssccsccsccccsccccccssccscccccccscccsscssssccccccsccssscssccccsccccccsscsscccssscccccccccccccscssssssccsscscccscssccscccscsscssccsscccssccsssssccsscccsscccccccccccccccccccccccccccccccccscccscccsscsccccccccscscsccssssscssccccsccscccsscsscscscscssccssccccccssccccccssssssssssscsscsssss" />
    <path
       style="fill:#ff0000;stroke-width:0.35277778"
       d="m 7.9425316,223.09532 c 0.14691,-0.24253 0.800661,-1.18736 1.45278,-2.09962 l 1.1856704,-1.65865 -1.2620984,-1.86913 -1.262098,-1.86912 1.124052,-0.11496 c 0.669541,-0.0685 1.2329974,0.0742 1.3934844,0.35277 0.148188,0.25726 0.494776,0.7704 0.770195,1.14031 0.47931,0.64376 0.528942,0.62487 1.15855,-0.44097 0.52639,-0.89111 0.889952,-1.11354 1.82005,-1.11354 h 1.162265 l -1.270079,1.91287 -1.270079,1.91288 1.456009,2.14407 1.456009,2.14407 h -1.219094 c -1.022269,0 -1.347588,-0.20791 -2.014941,-1.28771 l -0.795847,-1.2877 -0.818674,1.02312 c -0.450272,0.56272 -0.819464,1.14218 -0.820428,1.2877 -9.52e-4,0.14552 -0.5667464,0.26459 -1.2572944,0.26459 -0.911707,0 -1.182393,-0.12077 -0.988432,-0.44098 z"
       id="path826-5"
       inkscape:connector-curvature="0"
       sodipodi:nodetypes="cccccccccscccccsccccsc" />
  </g>
</svg>
